<?xml version="1.0" encoding="utf-8"?>
<!-- Generator: Adobe Illustrator 16.0.0, SVG Export Plug-In . SVG Version: 6.00 Build 0)  -->
<!DOCTYPE svg PUBLIC "-//W3C//DTD SVG 1.1//EN" "http://www.w3.org/Graphics/SVG/1.1/DTD/svg11.dtd">
<svg version="1.1" id="Layer_1" xmlns="http://www.w3.org/2000/svg" xmlns:xlink="http://www.w3.org/1999/xlink" x="0px" y="0px"
	 width="430.479px" height="359.981px" viewBox="0 0 430.479 359.981" enable-background="new 0 0 430.479 359.981"
	 xml:space="preserve">
<g>
	<path fill="#FFFFFF" d="M152.519,157.366c-2.553,12-5.098,23.205-7.196,34.493c-0.406,2.187,0.722,4.771,1.506,7.048
		c5.032,14.578,10.456,29.031,15.1,43.731c1.467,4.646,1.998,10.106,1.153,14.879c-4.392,24.789-9.374,49.474-14.131,74.2
		c-2.437,12.668-10.973,19.82-21.729,18.152c-10.362-1.607-17.058-11.352-15.325-22.621c3.456-22.484,7.168-44.934,10.404-67.447
		c0.477-3.318-0.282-7.324-1.807-10.338c-9.263-18.293-18.787-36.457-28.501-54.518c-3.568-6.634-4.551-13.102-2.583-20.471
		c6.078-22.749,11.748-45.604,17.64-68.401c3.339-12.924,11.704-20.627,23.685-22.016c11.768-1.364,24.084,5.138,29.746,16.212
		c6.838,13.373,13.482,26.852,19.876,40.442c1.828,3.886,4.277,5.836,8.374,6.867c8.655,2.178,17.196,4.821,25.754,7.373
		c9.948,2.966,14.676,10.911,11.963,19.909c-2.801,9.302-10.672,13.345-20.594,10.509c-10.929-3.123-21.747-6.698-32.791-9.335
		c-8.627-2.061-14.775-6.349-17.883-14.744c-0.277-0.753-0.727-1.449-1.144-2.146C153.837,158.812,153.531,158.542,152.519,157.366z
		"/>
	<path fill="#FFFFFF" d="M332.099,276.696c0,21.15,0.017,42.301-0.01,63.447c-0.011,7.883-0.914,8.768-8.716,8.77
		c-24.606,0.012-49.214,0.018-73.82-0.004c-7.092-0.006-8.245-0.992-8.254-7.998c-0.06-43.111-0.058-86.227-0.007-129.338
		c0.009-7.238,1.209-8.258,8.704-8.262c24.403-0.014,48.807-0.012,73.21-0.001c7.807,0.005,8.869,1.015,8.881,8.717
		C332.119,233.583,332.099,255.139,332.099,276.696z"/>
	<path fill="#FFFFFF" d="M153.496,78.444c-17.12-0.014-31.161-14.155-30.886-31.105c0.274-16.834,14.151-30.511,30.938-30.49
		c17.022,0.021,31.007,14.132,30.874,31.156C184.293,64.774,170.39,78.458,153.496,78.444z"/>
	<path fill="#FFFFFF" d="M235.741,175.852c0-2.755,0-5.351,0-8.184c1.361-0.204,2.525-0.528,3.688-0.529
		c23.754-0.031,47.506-0.076,71.256-0.001c8.723,0.027,11.051,3.639,7.457,11.5c-8.192,17.93-4.486,16.067-24.824,16.128
		c-8.323,0.023-16.648-0.135-24.969,0.054c-5.17,0.115-9.192-1.963-10.188-6.825c-2.076-10.155-7.933-13.488-17.621-11.558
		c-0.972,0.193-2.024,0.001-3.036-0.07C237.117,176.339,236.743,176.152,235.741,175.852z"/>
	<path fill="#FFFFFF" d="M273.646,157.168c-4.604-2.536-5.984-7.525-4.201-14.259c1.203-4.553,1.724-9.285,2.65-13.916
		c0.178-0.892,0.776-2.353,1.271-2.39c0.981-0.074,1.961,1.373,2.37,2.101c1.451,2.574,3.174,4.848,2.754,7.535
		C277.409,143.187,275.375,149.986,273.646,157.168z"/>
	<path fill="#FFFFFF" d="M286.703,157.168c-4.603-2.536-5.983-7.525-4.201-14.259c1.204-4.553,1.724-9.285,2.651-13.916
		c0.179-0.892,0.777-2.353,1.27-2.39c0.983-0.074,1.962,1.373,2.372,2.101c1.449,2.574,3.172,4.848,2.753,7.535
		C290.467,143.187,288.433,149.986,286.703,157.168z"/>
	<path fill="#FFFFFF" d="M300.733,157.168c-4.602-2.536-5.983-7.525-4.201-14.259c1.203-4.553,1.724-9.285,2.65-13.916
		c0.178-0.892,0.776-2.353,1.271-2.39c0.983-0.074,1.962,1.373,2.371,2.101c1.45,2.574,3.173,4.848,2.753,7.535
		C304.498,143.187,302.463,149.986,300.733,157.168z"/>
</g>
</svg>
