<?xml version="1.0" encoding="utf-8"?>
<!-- Generator: Adobe Illustrator 16.0.0, SVG Export Plug-In . SVG Version: 6.00 Build 0)  -->
<!DOCTYPE svg PUBLIC "-//W3C//DTD SVG 1.1//EN" "http://www.w3.org/Graphics/SVG/1.1/DTD/svg11.dtd">
<svg version="1.1" id="Layer_1" xmlns="http://www.w3.org/2000/svg" xmlns:xlink="http://www.w3.org/1999/xlink" x="0px" y="0px"
	 width="430.479px" height="359.981px" viewBox="0 0 430.479 359.981" enable-background="new 0 0 430.479 359.981"
	 xml:space="preserve">
<g>
	<path fill="#FFFFFF" d="M137.344,127.227c-7.429,20.381-14.4,39.511-22.174,60.842c11.054,0,20.604-0.084,30.153,0.02
		c17.181,0.187,23.027,5.912,23.086,23.136c0.124,35.305,0.087,70.608-0.024,105.911c-0.014,4.338-0.272,8.855-1.496,12.967
		c-2.59,8.705-8.272,15.279-17.768,15.313c-9.529,0.029-15.285-6.496-17.677-15.303c-1.302-4.785-1.548-9.967-1.574-14.971
		c-0.145-26.563-0.068-53.124-0.07-79.688c0-3.609,0-7.221,0-13.617c-14.49,1.804-27.893,2.043-40.48,5.363
		c-19.806,5.229-38.541-8.472-37.318-29.156c0.233-3.949,1.276-7.979,2.631-11.721c11.192-30.926,22.505-61.807,33.864-92.669
		c5.007-13.603,14.9-21.106,27.622-21.248c11.701-0.13,21.479,7.604,27.289,20.426c1.457,3.214,4.859,6.226,8.109,7.834
		c17.752,8.78,35.757,17.049,53.63,25.585c10.865,5.19,14.665,13.102,10.488,21.398c-4.179,8.299-12.624,10.359-23.29,5.406
		C174.404,144.723,156.53,136.246,137.344,127.227z"/>
	<path fill="#FFFFFF" d="M217.034,219.429c0,41.932,0,83.459,0,125.706c-10.299,0-19.451,0-29.229,0c0-54.115,0-107.773,0-162.282
		c76.328,0,152.436,0,229.172,0c0,54.028,0,107.972,0,162.462c-9.659,0-18.882,0-29.078,0c0-42.082,0-83.626,0-125.886
		C330.685,219.429,274.437,219.429,217.034,219.429z"/>
	<path fill="#FFFFFF" d="M36.334,345.397c-7.698,0-13.992,0-21.27,0c0-84.609,0-169.157,0-254.518c5.541,0,11.682,0,18.837,0
		c0,45.762,0,91.682,0,139.084c28.569,0,56.221,0,84.487,0c0,39.274,0,77.059,0,115.303c-7.063,0-13.583,0-21.238,0
		c0-31.68,0-62.779,0-94.326c-20.809,0-40.477,0-60.816,0C36.334,282.495,36.334,313.372,36.334,345.397z"/>
	<path fill="#FFFFFF" d="M193.858,44.898c-0.132,18.323-15.262,33.281-33.427,33.047c-17.939-0.228-33.399-16.001-33.059-33.722
		c0.353-18.299,15.46-32.994,33.753-32.835C179.603,11.55,193.993,26.281,193.858,44.898z"/>
	<path fill="#FFFFFF" d="M191.542,176.039c0-4.133,0-7.977,0-12.942c23.734,0,46.848-0.692,69.891,0.286
		c11.601,0.495,17.024-2.677,20.271-14.361c6.081-21.893,14.218-43.213,21.809-65.68c4.223,1.349,7.896,2.521,12.764,4.076
		c-3.229,9.733-6.229,18.833-9.266,27.92c-6.056,18.113-12.258,36.181-18.109,54.361c-1.482,4.604-3.006,7.46-8.738,7.4
		c-28.197-0.295-56.4-0.15-84.603-0.213C194.29,176.881,193.02,176.365,191.542,176.039z"/>
</g>
</svg>
