<?xml version="1.0" encoding="utf-8"?>
<!-- Generator: Adobe Illustrator 16.0.0, SVG Export Plug-In . SVG Version: 6.00 Build 0)  -->
<!DOCTYPE svg PUBLIC "-//W3C//DTD SVG 1.1//EN" "http://www.w3.org/Graphics/SVG/1.1/DTD/svg11.dtd">
<svg version="1.1" id="Layer_1" xmlns="http://www.w3.org/2000/svg" xmlns:xlink="http://www.w3.org/1999/xlink" x="0px" y="0px"
	 width="430.479px" height="359.981px" viewBox="0 0 430.479 359.981" enable-background="new 0 0 430.479 359.981"
	 xml:space="preserve">
<g>
	<path fill="#FFFFFF" d="M115.287,217.161c-23.416-1.285-42.159-10.732-55.466-29.656c-9.19-13.071-12.665-27.893-11.622-43.733
		c2.216-33.697,26.277-55.353,68.636-61.656c3.497-15.04,9.755-28.995,20.424-40.558c23.699-25.688,52.934-35.639,87.053-28.063
		c33.924,7.533,55.645,29.18,66.095,62.089c1.504,4.739,2.797,7.282,8.588,7.544c32.923,1.488,59.169,28.101,62.103,62.316
		c2.633,30.761-19.566,61.554-49.914,69.011c-5.272,1.295-10.701,1.953-16.979,3.066c0,29.301,0,58.6,0,88.221
		c-60.063,0-119.17,0-178.916,0C115.287,276.145,115.287,247.002,115.287,217.161z"/>
	<path fill="#FFFFFF" d="M115.705,324.59c59.475,0,118.532,0,177.974,0c0,8.824,0,17.27,0,26.098c-59.468,0-118.515,0-177.974,0
		C115.705,342.028,115.705,333.764,115.705,324.59z"/>
</g>
</svg>
