<?xml version="1.0" encoding="utf-8"?>
<!-- Generator: Adobe Illustrator 16.0.0, SVG Export Plug-In . SVG Version: 6.00 Build 0)  -->
<!DOCTYPE svg PUBLIC "-//W3C//DTD SVG 1.1//EN" "http://www.w3.org/Graphics/SVG/1.1/DTD/svg11.dtd">
<svg version="1.1" id="Layer_1" xmlns="http://www.w3.org/2000/svg" xmlns:xlink="http://www.w3.org/1999/xlink" x="0px" y="0px"
	 width="1366px" height="80px" viewBox="0 0 1366 80" enable-background="new 0 0 1366 80" xml:space="preserve">
<g>
	<path fill="#ED1E79" d="M1366,81V60.129c-2.188-2.276-4.475-5.272-6.668-8.014c-1.966-2.457-3.855-4.702-5.527-6.019
		c-8.918-7.021-20.985-8.604-32.596-6.367c-11.28,2.175-18.969,9.896-30.203,5.177c-12.762-5.36-19.673-22.097-27.35-32.405
		c-13.734,30.26-50.707,50.636-66.71,9.062c-19.101,9.529-32.634,21.039-55.61,19.155c-19.558-1.604-34.847-20.708-52.331-30.083
		c-26.583-14.254-36.877-8.148-58.153,13.088c-3.637,3.629-11.2,15.877-15.771,16.984c-13.748,3.33-33.163-19.226-45.519-24.161
		c-7.849-3.135-19.86-6.118-28.488-4.028c-11.069,2.68-9.272,9.36-17.16,17.431c-12.654,12.948-31.329,6.609-45.54-2.298
		c-6.934-4.346-12.707-11.351-21.016-12.64c-11.671-1.811-13.147,4.46-20.867,11.723c-17.532,16.497-38.001,6.757-56.269-4.283
		c-13.306-8.041-34.89-24.972-51.404-18.032c-9.008,3.786-14.356,15.031-21.651,21.234c-7.781,6.616-14.955,8.944-25.924,9.938
		c-24.877,2.251-34.641-14.984-56.492-18.971c-21.837-3.983-43.262,9.081-65.556,8.714c-19.248-0.317-27.558-7.633-43.779,3.628
		c-19.605,13.609-26.084,5.536-44.649-6.198c-24.715-15.621-31.496,8.995-54.677,11.603c-16.412,1.846-22.068-18.005-39.948-15.534
		c-9.251,1.278-15.389,7.578-24.396,7.851c-9.04,0.272-9.911-6.896-16.66-7.533c-14.251-1.344-6.84,9.586-14.187,16.569
		c-6.527,6.206-19.391,4.722-28.497,2.334c-11.078-2.905-24.051-16.132-36.153-13.766c-9.837,1.922-11.717,12.196-23.164,10.209
		c-8.848-1.536-10.947-11.663-20.236-11.755c-12.49-0.124-10.854,12.967-19.587,16.427c-7.531,2.983-19.644-4.752-26.949-6.142
		c-9.214-1.752-18.544-2.145-27.147,0.541c-12.479,3.895-16.233,7.78-31.735,4.647c-9.118-1.844-16.65-5.403-26.288-3.968
		c-8.916,1.328-21.705,11.076-30.18,4.923c-10.447-7.585-3.15-23.733-16.901-26.682C18.85,9.227,7.437,21.174,0,32.704V81H1366z"/>
</g>
</svg>
